<?xml version="1.0" standalone="no"?>
<!DOCTYPE svg PUBLIC "-//W3C//DTD SVG 20010904//EN"
 "http://www.w3.org/TR/2001/REC-SVG-20010904/DTD/svg10.dtd">
<svg version="1.0" xmlns="http://www.w3.org/2000/svg"
 width="1356.000000pt" height="528.000000pt" viewBox="0 0 1356.000000 528.000000"
 preserveAspectRatio="xMidYMid meet">

<g transform="translate(0.000000,528.000000) scale(0.100000,-0.100000)"
fill="#000000" stroke="none">
<path d="M10150 4309 l0 -272 -43 40 c-97 89 -199 128 -337 127 -208 0 -369
-102 -460 -288 -47 -97 -61 -167 -61 -301 0 -138 14 -205 66 -310 92 -186 251
-285 461 -285 144 0 245 40 333 132 l41 42 0 -82 0 -83 148 3 147 3 0 770 0
770 -147 3 -148 3 0 -272z m-200 -378 c72 -28 122 -72 161 -143 33 -60 34 -67
34 -168 0 -127 -18 -183 -82 -251 -60 -64 -128 -93 -218 -93 -119 1 -216 68
-272 189 -23 51 -27 73 -27 150 0 78 4 99 29 153 67 148 229 218 375 163z"/>
<path d="M6190 4494 c-251 -54 -395 -253 -351 -487 15 -81 37 -124 96 -183 63
-63 133 -96 355 -167 189 -61 240 -89 271 -149 58 -113 -25 -232 -171 -245
-120 -11 -212 43 -239 140 l-14 47 -155 0 -155 0 6 -55 c22 -210 220 -359 497
-372 244 -12 425 79 512 254 31 64 33 73 33 178 0 135 -20 189 -99 264 -69 65
-137 98 -332 160 -249 81 -304 122 -304 226 0 120 107 187 249 155 44 -10 65
-22 98 -55 25 -24 46 -56 49 -74 l7 -31 160 0 160 0 -6 52 c-15 121 -108 241
-231 299 -121 57 -294 74 -436 43z"/>
<path d="M7180 4330 l0 -140 -70 0 -70 0 0 -120 0 -120 70 0 70 0 0 -313 c0
-340 7 -395 56 -470 32 -49 95 -93 158 -113 29 -8 112 -18 194 -21 l142 -6 0
126 0 125 -100 4 c-93 3 -101 5 -127 31 l-28 27 0 303 0 302 128 3 127 3 0
119 0 120 -130 0 -130 0 0 140 0 140 -145 0 -145 0 0 -140z"/>
<path d="M1620 4365 c-334 -67 -598 -332 -665 -664 -27 -133 -17 -308 24 -431
77 -226 228 -398 441 -499 106 -51 177 -69 310 -81 61 -6 626 -10 1360 -10
1254 1 1255 1 1325 -20 163 -50 297 -160 372 -306 74 -142 92 -287 53 -438
-28 -111 -74 -189 -160 -277 -81 -82 -135 -118 -239 -158 l-66 -26 -1508 -5
-1509 -5 -29 -33 c-34 -37 -40 -102 -13 -140 38 -55 -50 -52 1541 -52 1672 0
1565 -5 1748 84 518 252 647 924 257 1338 -118 124 -254 205 -424 250 l-83 22
-1330 3 c-938 2 -1345 6 -1380 14 -27 6 -88 29 -135 51 -67 32 -101 57 -160
117 -127 127 -183 264 -182 441 1 234 133 442 347 548 132 66 34 62 1654 62
1617 0 1513 -4 1546 60 19 37 19 73 0 110 -33 64 72 60 -1552 59 -1178 -1
-1491 -4 -1543 -14z"/>
<path d="M7930 3828 c0 -200 5 -392 10 -428 13 -84 71 -201 125 -256 163 -163
460 -166 636 -7 l39 35 0 -71 0 -71 145 0 145 0 0 580 0 580 -144 0 -145 0 -3
-362 c-3 -354 -4 -364 -26 -413 -30 -65 -56 -93 -117 -121 -96 -45 -237 -23
-302 47 -12 13 -32 47 -45 74 -22 49 -23 59 -26 413 l-4 362 -144 0 -144 0 0
-362z"/>
<path d="M10603 4178 c2 -7 100 -245 216 -528 165 -401 240 -597 336 -885 98
-293 171 -484 349 -919 124 -302 226 -554 226 -561 0 -7 -54 -137 -120 -289
-66 -152 -120 -279 -120 -281 0 -3 69 -5 154 -5 l154 0 35 83 c41 97 667 1586
674 1605 4 10 -28 12 -152 10 l-157 -3 -147 -392 c-80 -216 -149 -393 -152
-393 -3 0 -72 181 -154 403 -82 221 -202 539 -267 707 -65 167 -118 308 -118
313 0 7 366 883 459 1100 l20 47 -157 0 -157 0 -149 -401 c-86 -228 -153 -394
-157 -387 -4 7 -71 187 -149 401 l-143 387 -165 0 c-127 0 -163 -3 -159 -12z"/>
<path d="M1756 3900 c-113 -20 -222 -107 -274 -218 -23 -48 -27 -71 -27 -147
0 -80 3 -97 32 -157 39 -84 97 -141 181 -181 l67 -32 1400 -3 c1374 -2 1401
-2 1432 17 21 14 35 32 42 58 14 50 14 546 0 596 -6 21 -21 44 -37 55 -24 16
-113 17 -1397 19 -753 0 -1392 -3 -1419 -7z"/>
<path d="M9417 2793 c-4 -3 -7 -125 -7 -270 l0 -264 -42 41 c-24 23 -74 57
-113 76 -256 125 -563 17 -685 -242 -48 -102 -55 -141 -55 -299 0 -139 2 -156
28 -230 40 -113 106 -207 186 -266 96 -70 155 -91 282 -96 159 -8 262 29 357
125 l42 44 0 -76 0 -76 150 0 150 0 0 770 0 770 -143 0 c-79 0 -147 -3 -150
-7z m-171 -656 c139 -71 203 -258 149 -431 -54 -171 -251 -259 -408 -182 -116
56 -177 164 -177 311 0 167 76 279 220 326 49 16 162 4 216 -24z"/>
<path d="M10830 2529 l0 -271 -47 43 c-87 77 -225 129 -343 129 -69 0 -197
-36 -258 -73 -300 -180 -354 -691 -102 -961 100 -107 217 -156 372 -156 138 0
262 50 337 136 17 19 33 34 36 34 3 0 5 -34 5 -75 l0 -75 145 0 145 0 0 524 0
523 -80 247 -81 246 -64 0 -65 0 0 -271z m-209 -376 c72 -23 158 -107 183
-178 84 -246 -56 -481 -285 -479 -166 1 -287 131 -297 319 -5 94 6 141 50 215
35 57 103 112 162 129 51 15 130 12 187 -6z"/>
<path d="M5870 1986 l0 -726 368 0 c298 0 379 3 427 15 125 33 225 111 273
213 24 50 27 70 27 157 0 93 -2 105 -33 167 -39 79 -99 137 -177 169 l-54 22
41 19 c134 60 209 194 195 346 -15 152 -107 261 -267 314 -61 21 -88 22 -432
26 l-368 4 0 -726z m665 465 c70 -32 105 -86 105 -162 0 -80 -51 -147 -128
-169 -20 -5 -108 -10 -194 -10 l-158 0 0 180 0 180 168 0 c141 0 173 -3 207
-19z m9 -583 c92 -28 147 -129 125 -227 -13 -61 -41 -95 -97 -123 -43 -21 -62
-23 -229 -26 l-183 -4 0 196 0 196 171 0 c107 0 187 -5 213 -12z"/>
<path d="M1484 2406 l-34 -34 0 -298 c0 -280 1 -301 20 -331 11 -18 30 -35 42
-38 13 -3 655 -4 1428 -3 l1405 3 57 27 c233 109 285 428 98 602 -28 26 -76
59 -108 74 l-57 27 -1408 3 -1409 2 -34 -34z"/>
<path d="M7192 2018 c5 -431 9 -459 68 -563 35 -61 110 -135 168 -164 23 -12
70 -28 104 -36 160 -38 317 -2 424 97 l44 41 0 -67 0 -66 145 0 145 0 0 575 0
575 -145 0 -145 0 0 -348 c0 -409 -3 -429 -79 -502 -51 -50 -102 -70 -177 -70
-102 0 -175 41 -220 123 l-29 52 -3 373 -3 372 -150 0 -151 0 4 -392z"/>
</g>
</svg>
